<svg xmlns="http://www.w3.org/2000/svg" width="1000" height="600"><rect width="1000" height="600" x="0" y="0" fill="#FFFFFF" id="backgorund"/><g id="viz"><clipPath id="serieClipPath"><rect x="-50" y="-30" width="1000" height="600"/></clipPath><g transform="translate(0,0)"><g transform="translate(50,30)" clip-path="url(#serieClipPath)"><g id="axis"><g transform="translate(0,540)" fill="none" font-size="10" font-family="sans-serif" text-anchor="middle"><path class="domain" stroke="currentColor" d="M0.5,6V0.5H900.5V6"/><g class="tick" opacity="1" transform="translate(0.5,0)"><line stroke="currentColor" y2="6"/><text fill="currentColor" y="9" dy="0.71em">5</text></g><g class="tick" opacity="1" transform="translate(90.5,0)"><line stroke="currentColor" y2="6"/><text fill="currentColor" y="9" dy="0.71em">10</text></g><g class="tick" opacity="1" transform="translate(180.5,0)"><line stroke="currentColor" y2="6"/><text fill="currentColor" y="9" dy="0.71em">15</text></g><g class="tick" opacity="1" transform="translate(270.5,0)"><line stroke="currentColor" y2="6"/><text fill="currentColor" y="9" dy="0.71em">20</text></g><g class="tick" opacity="1" transform="translate(360.5,0)"><line stroke="currentColor" y2="6"/><text fill="currentColor" y="9" dy="0.71em">25</text></g><g class="tick" opacity="1" transform="translate(450.5,0)"><line stroke="currentColor" y2="6"/><text fill="currentColor" y="9" dy="0.71em">30</text></g><g class="tick" opacity="1" transform="translate(540.5,0)"><line stroke="currentColor" y2="6"/><text fill="currentColor" y="9" dy="0.71em">35</text></g><g class="tick" opacity="1" transform="translate(630.5,0)"><line stroke="currentColor" y2="6"/><text fill="currentColor" y="9" dy="0.71em">40</text></g><g class="tick" opacity="1" transform="translate(720.5,0)"><line stroke="currentColor" y2="6"/><text fill="currentColor" y="9" dy="0.71em">45</text></g><g class="tick" opacity="1" transform="translate(810.5,0)"><line stroke="currentColor" y2="6"/><text fill="currentColor" y="9" dy="0.71em">50</text></g><g class="tick" opacity="1" transform="translate(900.5,0)"><line stroke="currentColor" y2="6"/><text fill="currentColor" y="9" dy="0.71em">55</text></g><text x="900" dy="-5" text-anchor="end" style="font-family: Arial, sans-serif; font-size: 12px; fill: rgb(123, 123, 123); font-weight: bold;">eliminations</text></g><g transform="translate(0,0)" fill="none" font-size="10" font-family="sans-serif" text-anchor="end"><path class="domain" stroke="currentColor" d="M0.5,540.5V0.5"/><g class="tick" opacity="1" transform="translate(0,540.5)"><line stroke="currentColor" x2="-6"/><text fill="currentColor" x="-9" dy="0.32em">0</text></g><g class="tick" opacity="1" transform="translate(0,491.4090909090909)"><line stroke="currentColor" x2="-6"/><text fill="currentColor" x="-9" dy="0.32em">5,000</text></g><g class="tick" opacity="1" transform="translate(0,442.3181818181818)"><line stroke="currentColor" x2="-6"/><text fill="currentColor" x="-9" dy="0.32em">10,000</text></g><g class="tick" opacity="1" transform="translate(0,393.22727272727275)"><line stroke="currentColor" x2="-6"/><text fill="currentColor" x="-9" dy="0.32em">15,000</text></g><g class="tick" opacity="1" transform="translate(0,344.1363636363636)"><line stroke="currentColor" x2="-6"/><text fill="currentColor" x="-9" dy="0.32em">20,000</text></g><g class="tick" opacity="1" transform="translate(0,295.0454545454545)"><line stroke="currentColor" x2="-6"/><text fill="currentColor" x="-9" dy="0.32em">25,000</text></g><g class="tick" opacity="1" transform="translate(0,245.95454545454547)"><line stroke="currentColor" x2="-6"/><text fill="currentColor" x="-9" dy="0.32em">30,000</text></g><g class="tick" opacity="1" transform="translate(0,196.86363636363637)"><line stroke="currentColor" x2="-6"/><text fill="currentColor" x="-9" dy="0.32em">35,000</text></g><g class="tick" opacity="1" transform="translate(0,147.77272727272725)"><line stroke="currentColor" x2="-6"/><text fill="currentColor" x="-9" dy="0.32em">40,000</text></g><g class="tick" opacity="1" transform="translate(0,98.68181818181816)"><line stroke="currentColor" x2="-6"/><text fill="currentColor" x="-9" dy="0.32em">45,000</text></g><g class="tick" opacity="1" transform="translate(0,49.59090909090911)"><line stroke="currentColor" x2="-6"/><text fill="currentColor" x="-9" dy="0.32em">50,000</text></g><g class="tick" opacity="1" transform="translate(0,0.5)"><line stroke="currentColor" x2="-6"/><text fill="currentColor" x="-9" dy="0.32em">55,000</text></g><text x="4" text-anchor="start" dominant-baseline="hanging" style="font-family: Arial, sans-serif; font-size: 12px; fill: rgb(123, 123, 123); font-weight: bold;">all_dmg_done</text></g></g><g id="viz"><g id="San Francisco Shock"><path d="M54,512.8758312316363L144,501.90830575527275L378,436.7379666338182L396,341.3755656654546L414,405.69017429454544L468,308.1772283890909L504.00000000000006,379.8903076870909L522,354.3762961963636L540,325.8793370618182L558,275.17367029090906L576,370.35708522545457L612,18.317230969090907L648,421.45850359636364L666,308.83761162L684,280.7662930036364L828,201.18033670909085" stroke="#fc4c02" fill="none"/><g><circle class="dot" cx="54" cy="512.8758312316363" r="2" fill="#fc4c02"/><circle class="dot" cx="144" cy="501.90830575527275" r="2" fill="#fc4c02"/><circle class="dot" cx="378" cy="436.7379666338182" r="2" fill="#fc4c02"/><circle class="dot" cx="396" cy="341.3755656654546" r="2" fill="#fc4c02"/><circle class="dot" cx="414" cy="405.69017429454544" r="2" fill="#fc4c02"/><circle class="dot" cx="468" cy="308.1772283890909" r="2" fill="#fc4c02"/><circle class="dot" cx="504.00000000000006" cy="379.8903076870909" r="2" fill="#fc4c02"/><circle class="dot" cx="522" cy="354.3762961963636" r="2" fill="#fc4c02"/><circle class="dot" cx="540" cy="325.8793370618182" r="2" fill="#fc4c02"/><circle class="dot" cx="558" cy="275.17367029090906" r="2" fill="#fc4c02"/><circle class="dot" cx="576" cy="370.35708522545457" r="2" fill="#fc4c02"/><circle class="dot" cx="612" cy="18.317230969090907" r="2" fill="#fc4c02"/><circle class="dot" cx="648" cy="421.45850359636364" r="2" fill="#fc4c02"/><circle class="dot" cx="666" cy="308.83761162" r="2" fill="#fc4c02"/><circle class="dot" cx="684" cy="280.7662930036364" r="2" fill="#fc4c02"/><circle class="dot" cx="828" cy="201.18033670909085" r="2" fill="#fc4c02"/></g><text font-family="sans-serif" font-size="10" class="labels" x="828" y="201.18033670909085" dx="5" dy="4" text-anchor="start">San Francisco Shock</text></g><g id="Vancouver Titans"><path d="M144,424.2086630181818L180,310.0101537272727L198,342.0827325818182L216,345.84970228363636L252.00000000000003,390.8243411476363L288,437.9354851090909L324,425.8836578945454L360,327.5400388745455L378,400.1300931534546L396,347.84544842181816L450,239.62250932363636L504.00000000000006,349.24960737818185L612,379.0260591054545L684,228.28025536363637" stroke="#2fb228" fill="none"/><g><circle class="dot" cx="144" cy="424.2086630181818" r="2" fill="#2fb228"/><circle class="dot" cx="180" cy="310.0101537272727" r="2" fill="#2fb228"/><circle class="dot" cx="198" cy="342.0827325818182" r="2" fill="#2fb228"/><circle class="dot" cx="216" cy="345.84970228363636" r="2" fill="#2fb228"/><circle class="dot" cx="252.00000000000003" cy="390.8243411476363" r="2" fill="#2fb228"/><circle class="dot" cx="288" cy="437.9354851090909" r="2" fill="#2fb228"/><circle class="dot" cx="324" cy="425.8836578945454" r="2" fill="#2fb228"/><circle class="dot" cx="360" cy="327.5400388745455" r="2" fill="#2fb228"/><circle class="dot" cx="378" cy="400.1300931534546" r="2" fill="#2fb228"/><circle class="dot" cx="396" cy="347.84544842181816" r="2" fill="#2fb228"/><circle class="dot" cx="450" cy="239.62250932363636" r="2" fill="#2fb228"/><circle class="dot" cx="504.00000000000006" cy="349.24960737818185" r="2" fill="#2fb228"/><circle class="dot" cx="612" cy="379.0260591054545" r="2" fill="#2fb228"/><circle class="dot" cx="684" cy="228.28025536363637" r="2" fill="#2fb228"/></g><text font-family="sans-serif" font-size="10" class="labels" x="684" y="228.28025536363637" dx="5" dy="4" text-anchor="start">Vancouver Titans</text></g></g></g><text y="4" x="4" style="font-family: Arial, sans-serif; font-size: 12px; fill: black; font-weight: bold; dominant-baseline: hanging;"/></g><g id="grid"><rect x="0" y="0" width="1000" height="600" fill="none" stroke="#ccc"/></g></g></svg>